HIERARCHY
ROOT Hips
{
	OFFSET -0.001795 -0.223333 0.028219
	CHANNELS 6 Xposition Yposition Zposition Zrotation Yrotation Xrotation 
	JOINT LeftUpLeg
	{
		OFFSET 0.069520 -0.091406 -0.006815
		CHANNELS 3 Zrotation Yrotation Xrotation
		JOINT LeftLeg
		{
			OFFSET 0.034277 -0.375199 -0.004496
			CHANNELS 3 Zrotation Yrotation Xrotation
			JOINT LeftFoot
			{
				OFFSET -0.013596 -0.397961 -0.043693
				CHANNELS 3 Zrotation Yrotation Xrotation
				JOINT LeftToe
				{
					OFFSET 0.026358 -0.055791 0.119288
					CHANNELS 3 Zrotation Yrotation Xrotation
					End Site
					{
						OFFSET 0.000000 0.000000 0.000000
					}
				}
			}
		}
	}
	JOINT RightUpLeg
	{
		OFFSET -0.067670 -0.090522 -0.004320
		CHANNELS 3 Zrotation Yrotation Xrotation
		JOINT RightLeg
		{
			OFFSET -0.038290 -0.382569 -0.008850
			CHANNELS 3 Zrotation Yrotation Xrotation
			JOINT RightFoot
			{
				OFFSET 0.015774 -0.398415 -0.042312
				CHANNELS 3 Zrotation Yrotation Xrotation
				JOINT RightToe
				{
					OFFSET -0.025372 -0.048144 0.123348
					CHANNELS 3 Zrotation Yrotation Xrotation
					End Site
					{
						OFFSET 0.000000 0.000000 0.000000
					}
				}
			}
		}
	}
	JOINT Spine
	{
		OFFSET -0.002533 0.108963 -0.026696
		CHANNELS 3 Zrotation Yrotation Xrotation
		JOINT Spine1
		{
			OFFSET 0.005487 0.135180 0.001092
			CHANNELS 3 Zrotation Yrotation Xrotation
			JOINT Spine2
			{
				OFFSET 0.001457 0.052922 0.025425
				CHANNELS 3 Zrotation Yrotation Xrotation
				JOINT Neck
				{
					OFFSET -0.002778 0.213870 -0.042857
					CHANNELS 3 Zrotation Yrotation Xrotation
					JOINT Head
					{
						OFFSET 0.005152 0.064970 0.051349
						CHANNELS 3 Zrotation Yrotation Xrotation
						End Site
						{
							OFFSET 0.000000 0.000000 0.000000
						}
					}
				}
				JOINT LeftShoulder
				{
					OFFSET 0.078845 0.121749 -0.034090
					CHANNELS 3 Zrotation Yrotation Xrotation
					JOINT LeftArm
					{
						OFFSET 0.090977 0.030469 -0.008868
						CHANNELS 3 Zrotation Yrotation Xrotation
						JOINT LeftForeArm
						{
							OFFSET 0.259612 -0.012772 -0.027456
							CHANNELS 3 Zrotation Yrotation Xrotation
							JOINT LeftHand
							{
								OFFSET 0.249234 0.008986 -0.001171
								CHANNELS 3 Zrotation Yrotation Xrotation
								End Site
								{
									OFFSET 0.000000 0.000000 0.000000
								}
							}
						}
					}
				}
				JOINT RightShoulder
				{
					OFFSET -0.081759 0.118833 -0.038615
					CHANNELS 3 Zrotation Yrotation Xrotation
					JOINT RightArm
					{
						OFFSET -0.096012 0.032551 -0.009143
						CHANNELS 3 Zrotation Yrotation Xrotation
						JOINT RightForeArm
						{
							OFFSET -0.253742 -0.013329 -0.021401
							CHANNELS 3 Zrotation Yrotation Xrotation
							JOINT RightHand
							{
								OFFSET -0.255298 0.007772 -0.005559
								CHANNELS 3 Zrotation Yrotation Xrotation
								End Site
								{
									OFFSET 0.000000 0.000000 0.000000
								}
							}
						}
					}
				}
			}
		}
	}
}
MOTION
Frames: 9
Frame Time: 0.050000
0.011497 0.956910 -0.064634 2.010944 -5.743340 20.066476 3.427853 -1.094683 -17.123658 4.534217 0.068923 -7.338420 2.401806 9.398523 20.799196 0.000000 0.000000 0.000000 -3.365575 2.000645 -21.988936 -11.018857 0.026060 -7.367222 4.908480 -0.834759 21.344202 0.000000 0.000000 0.000000 4.434142 -0.871426 6.805466 4.341899 -1.721216 -3.072095 -11.141871 0.126448 1.312888 17.058814 -9.013065 -14.556813 0.000000 0.000000 0.000000 16.131240 -36.726420 9.349702 9.876912 -41.400062 -5.182732 21.522003 -21.477882 -3.079741 0.000000 0.000000 0.000000 -3.656779 23.769030 8.252256 20.780180 51.941560 5.564179 -28.522481 36.203695 -7.433094 0.000000 0.000000 0.000000 
0.012020 0.956667 -0.064751 2.024406 -5.454467 20.199356 3.306794 -1.122991 -17.300477 4.699371 0.082924 -7.568766 2.594773 9.783249 21.165885 0.000000 0.000000 0.000000 -3.455755 2.000131 -22.210212 -11.215725 0.044873 -7.280882 4.884894 -0.928610 21.629571 0.000000 0.000000 0.000000 4.779244 -0.948534 7.141245 4.093159 -1.604322 -3.325466 -11.362903 0.389932 1.769207 16.776520 -8.934352 -14.254481 0.000000 0.000000 0.000000 16.148024 -37.290710 9.467929 10.083295 -42.128938 -5.426372 22.418326 -21.303287 -3.232379 0.000000 0.000000 0.000000 -4.928548 23.812269 8.106079 17.598909 53.158024 4.401704 -28.941319 33.435224 -6.866310 0.000000 0.000000 0.000000 
0.012815 0.956546 -0.064886 2.106180 -5.230910 20.537810 3.007913 -1.183686 -17.785240 5.013409 0.056648 -7.381424 2.525329 9.721052 21.066408 0.000000 0.000000 0.000000 -3.652180 1.985757 -22.374345 -11.221804 0.010725 -7.529335 4.996073 -0.794570 21.895038 0.000000 0.000000 0.000000 4.786649 -0.979584 7.430563 4.232356 -1.655138 -3.389127 -11.664020 0.439033 1.861096 16.827211 -8.914620 -14.374703 0.000000 0.000000 0.000000 16.196029 -37.450670 9.508343 10.188351 -42.887964 -5.619951 23.142645 -21.269474 -3.363873 0.000000 0.000000 0.000000 -5.857571 24.064600 8.076475 14.353426 54.281575 3.127320 -28.614658 31.032882 -6.190927 0.000000 0.000000 0.000000 
0.013709 0.956378 -0.065173 2.329104 -4.861493 20.705689 2.553477 -1.255396 -18.028170 5.003645 0.071106 -7.520424 2.509964 9.796337 21.163749 0.000000 0.000000 0.000000 -3.995207 1.933307 -22.385472 -11.289705 -0.026031 -7.822583 5.235937 -0.472939 22.301050 0.000000 0.000000 0.000000 5.086455 -1.023530 7.358530 3.894913 -1.533172 -3.069397 -11.731241 0.208554 2.134458 16.357729 -8.688223 -14.213115 0.000000 0.000000 0.000000 15.723794 -37.643087 9.675899 10.643320 -43.463133 -5.861874 23.602610 -20.365456 -3.288268 0.000000 0.000000 0.000000 -6.612753 24.094492 7.974642 12.398524 55.178461 2.300134 -28.676933 29.280354 -5.805810 0.000000 0.000000 0.000000 
0.014525 0.956045 -0.065491 2.590456 -4.609389 20.956271 2.238282 -1.326756 -18.565451 5.010553 0.056445 -7.326926 2.439676 9.733199 21.009117 0.000000 0.000000 0.000000 -4.408543 1.890485 -22.554358 -11.278932 -0.052206 -8.002039 5.385862 -0.112115 22.216744 0.000000 0.000000 0.000000 4.945645 -1.023649 7.530411 3.850020 -1.504180 -3.228301 -11.922860 0.163762 2.426807 16.209407 -8.525396 -14.500888 0.000000 0.000000 0.000000 15.839998 -37.461346 9.601312 10.749860 -44.128237 -6.034416 23.957710 -19.430776 -3.189989 0.000000 0.000000 0.000000 -7.200985 23.708559 7.775301 11.333179 55.976341 1.875908 -29.291746 28.663373 -5.797282 0.000000 0.000000 0.000000 
0.015048 0.955750 -0.065740 2.768347 -4.419955 21.032573 1.951874 -1.379263 -18.832498 5.027193 0.048236 -7.223590 2.351346 9.666033 21.074014 0.000000 0.000000 0.000000 -4.641573 1.837554 -22.307549 -11.132414 -0.128753 -8.547704 5.322066 -0.317145 22.581734 0.000000 0.000000 0.000000 4.974458 -1.012993 7.300571 3.668016 -1.427834 -3.235017 -12.134531 0.068957 2.774821 16.186321 -8.386674 -15.069112 0.000000 0.000000 0.000000 15.249187 -37.335081 9.710536 10.922918 -44.832285 -6.230190 24.344900 -18.311355 -3.053890 0.000000 0.000000 0.000000 -7.044592 23.360101 7.682677 11.137129 56.428898 1.796383 -29.570081 28.657093 -5.856878 0.000000 0.000000 0.000000 
0.015323 0.955487 -0.065823 2.801191 -4.229384 21.089358 1.907883 -1.398869 -18.982701 5.059982 0.049570 -7.238086 2.154573 9.405075 20.934796 0.000000 0.000000 0.000000 -4.760472 1.808008 -22.182732 -11.028845 -0.179063 -8.908585 5.331558 -0.346120 22.802449 0.000000 0.000000 0.000000 5.019359 -1.014094 7.199810 3.553682 -1.368436 -3.476868 -12.414175 0.011665 3.106840 16.090933 -8.197285 -15.649527 0.000000 0.000000 0.000000 14.511903 -37.010268 9.810529 10.520903 -45.242030 -6.187055 24.869560 -18.189697 -3.113729 0.000000 0.000000 0.000000 -7.176908 22.973901 7.537397 11.762708 56.624376 2.108853 -30.272126 29.260633 -6.168599 0.000000 0.000000 0.000000 
0.015419 0.954889 -0.065735 3.016460 -3.842295 21.231264 1.741895 -1.447838 -19.285179 5.177152 0.027699 -7.009129 1.904823 9.090753 20.700785 0.000000 0.000000 0.000000 -5.034765 1.753936 -22.077093 -10.929860 -0.204297 -9.083424 5.226724 -0.409670 22.789938 0.000000 0.000000 0.000000 5.003013 -0.984217 6.800153 3.306422 -1.250119 -3.790247 -12.667317 -0.048646 3.551166 16.367157 -8.243682 -16.189108 0.000000 0.000000 0.000000 13.942967 -36.692082 9.853294 10.114652 -45.625330 -6.150222 25.360963 -18.211080 -3.200085 0.000000 0.000000 0.000000 -7.183431 22.319683 7.320514 12.638840 56.428959 2.521309 -30.788929 30.478395 -6.590257 0.000000 0.000000 0.000000 
0.015464 0.954710 -0.065652 3.058662 -3.353425 21.102787 1.684869 -1.453334 -19.057166 5.391004 0.043094 -7.267226 1.537164 8.688333 20.837781 0.000000 0.000000 0.000000 -5.008174 1.701877 -21.584712 -11.005919 -0.229750 -9.301261 5.142327 -0.408313 22.712933 0.000000 0.000000 0.000000 5.212134 -0.988787 6.492843 3.023345 -1.124085 -4.030204 -12.923584 0.069953 3.614136 16.692176 -8.365145 -16.389316 0.000000 0.000000 0.000000 12.546901 -36.630400 10.187633 9.350528 -45.884611 -5.997142 25.597416 -19.885955 -3.566797 0.000000 0.000000 0.000000 -6.617391 21.853297 7.244428 13.748571 55.623818 3.034623 -30.352635 32.114482 -6.854637 0.000000 0.000000 0.000000 
